<?xml version="1.0" encoding="utf-8"?>
<!-- Generator: Adobe Illustrator 26.1.0, SVG Export Plug-In . SVG Version: 6.00 Build 0)  -->
<svg version="1.1" id="Layer_1"
  xmlns="http://www.w3.org/2000/svg"
  xmlns:xlink="http://www.w3.org/1999/xlink" x="0px" y="0px" viewBox="0 0 70 70" style="enable-background:new 0 0 70 70;" xml:space="preserve">
  <style type="text/css">
        .st0{fill:#FFFFFF;}
  </style>
  <g id="Camada_2">
    <g>
      <polygon class="st0" points="43.57,20.27 43.57,37.22 26.73,20.33 18.15,20.33 18.15,54.1 26.62,54.1 26.62,37.22 43.74,54.1 
                        52.05,54.1 52.05,20.27          "/>
      <g>
        <polyline class="st0" points="14.7,28.63 5.29,28.63 5.29,54.08 14.7,54.08 14.7,28.63                    "/>
      </g>
      <g>
        <path class="st0" d="M14.58,25.76H9.33c-2.9,0-5.24-2.35-5.24-5.24v-0.58c0-2.9,2.35-5.24,5.24-5.24l0,0
                                c2.9,0,5.24,2.35,5.24,5.24L14.58,25.76"/>
      </g>
      <g>
        <path class="st0" d="M60.4,45c2.87,0,5.22,2.29,5.22,5.16c0,2.87-2.35,5.16-5.22,5.16c-2.87,0-5.16-2.29-5.16-5.16
                                C55.25,47.29,57.54,45,60.4,45z"/>
        <polygon class="st0" points="54.95,20.27 65.91,20.27 63.24,42.23 56.99,42.23                    "/>
      </g>
    </g>
  </g>
</svg>
