<?xml version="1.0" encoding="utf-8"?>
<!-- Generator: Adobe Illustrator 26.3.1, SVG Export Plug-In . SVG Version: 6.00 Build 0)  -->
<svg version="1.1" id="Camada_1"
  xmlns="http://www.w3.org/2000/svg"
  xmlns:xlink="http://www.w3.org/1999/xlink" x="0px" y="0px" viewBox="0 0 923.19 606.52" style="enable-background:new 0 0 923.19 606.52;" xml:space="preserve">
  <style type="text/css">
        .st0{fill:#FFFFFF;}
        .st1{fill:#501AB3;}
  </style>
  <g>
    <polygon class="st0" points="589.63,83.26 589.63,336.36 338.12,84.23 209.97,84.23 209.97,588.47 336.52,588.47 336.52,336.36 
                592.16,588.5 716.19,588.5 716.19,83.26  "/>
    <g>
      <polyline class="st0" points="158.4,208.21 17.9,208.21 17.9,588.24 158.4,588.24 158.4,208.21            "/>
    </g>
    <g>
      <path class="st0" d="M156.59,165.29H78.3C35.05,165.29,0,130.24,0,87v-8.7C0,35.05,35.05,0,78.3,0h0c43.24,0,78.3,35.05,78.3,78.3
                        V165.29"/>
    </g>
    <g>
      <path class="st0" d="M840.92,452.53c42.78,0,77.95,34.22,77.95,77s-35.17,77-77.95,77c-42.78,0-77-34.22-77-77
                        S798.14,452.53,840.92,452.53z"/>
      <polygon class="st0" points="759.59,83.26 923.19,83.26 883.26,411.23 790.01,411.23              "/>
    </g>
  </g>
  <g>
    <g>
      <path class="st1" d="M3081.19,99.79l-149.85,490.2h-142.01l-185.52-268h-0.23l-157.6,268h-166.45L2118.9,99.79h167.16l88.6,313.44
                        c43.21-73.85,86.42-147.71,129.64-221.56h181.78c53.17,73.85,106.34,147.71,159.52,221.56l85.75-313.44H3081.19z"/>
    </g>
    <path class="st1" d="M1876.91,83.26c-144.27,0-261.63,117.37-261.63,261.63s117.37,261.63,261.63,261.63
                s261.63-117.37,261.63-261.63S2021.17,83.26,1876.91,83.26z M1876.91,462.17c-64.67,0-117.28-52.61-117.28-117.28
                s52.61-117.28,117.28-117.28c64.67,0,117.28,52.61,117.28,117.28S1941.58,462.17,1876.91,462.17z"/>
    <polygon class="st1" points="1443.77,96.68 1443.77,343.22 1198.78,97.63 1073.95,97.63 1073.95,589.77 1197.22,589.77 
                1197.22,343.22 1446.23,588.82 1567.04,588.82 1567.04,96.68      "/>
    <g>
      <path class="st1" d="M3207.87,457.39c41.42,0,75.49,33.14,75.49,74.57s-34.06,74.57-75.49,74.57c-41.43,0-74.57-33.14-74.57-74.57
                        S3166.45,457.39,3207.87,457.39z"/>
      <polygon class="st1" points="3129.12,99.79 3287.54,99.79 3248.88,417.4 3158.58,417.4            "/>
    </g>
  </g>
</svg>
